<svg width="1000" height="1000" fill="none" xmlns="http://www.w3.org/2000/svg"><g clip-path="url(#a)"><rect width="1000" height="1000" rx="50" fill="#fff"/><path fill-rule="evenodd" clip-rule="evenodd" d="M125 75c-27.614 0-50 22.386-50 50v699.786l583.089-583.089c7.03-7.03 18.427-7.03 25.456 0l54.261 54.261c7.03 7.029 7.03 18.426 0 25.456L134.22 925H875c27.614 0 50-22.386 50-50V125c0-27.614-22.386-50-50-50H125Zm497.912 420.321c-43.19 13.289-66.806 59.165-52.965 102.523 13.871 43.106 59.913 67.443 103.104 54.155 43.051-13.428 66.806-59.164 52.851-102.409-5.509-17.636-16.528-32.088-30.648-42.055-20.238-14.757-46.817-20.072-72.315-12.181l-.027-.033Zm48.422 71.125c4.153 12.957-2.935 26.745-15.891 30.732-12.93 4.015-26.772-3.295-30.925-16.251-4.153-12.957 2.934-26.745 15.891-30.732 12.957-3.986 26.772 3.295 30.925 16.251Z" fill="url(#b)"/></g><defs><linearGradient id="b" x1="897" y1="98.923" x2="75" y2="934.345" gradientUnits="userSpaceOnUse"><stop stop-color="#2D03A4"/><stop offset="1" stop-color="#25212C"/></linearGradient><clipPath id="a"><path fill="#fff" d="M0 0h1000v1000H0z"/></clipPath></defs></svg>
